<svg xmlns="http://www.w3.org/2000/svg" viewBox="0 0 200 200" width="200" height="200">
  <!-- 背景圆 -->
  <defs>
    <linearGradient id="grad1" x1="0%" y1="0%" x2="100%" y2="100%">
      <stop offset="0%" style="stop-color:#667eea;stop-opacity:1" />
      <stop offset="100%" style="stop-color:#764ba2;stop-opacity:1" />
    </linearGradient>
  </defs>

  <circle cx="100" cy="100" r="95" fill="url(#grad1)" stroke="#fff" stroke-width="3"/>

  <!-- 餐叉 -->
  <g transform="translate(60, 50)">
    <rect x="18" y="0" width="4" height="100" fill="#fff" rx="2"/>
    <circle cx="20" cy="10" r="6" fill="#fff"/>
    <circle cx="20" cy="25" r="6" fill="#fff"/>
    <circle cx="20" cy="40" r="6" fill="#fff"/>
  </g>

  <!-- 刀 -->
  <g transform="translate(115, 50)">
    <rect x="18" y="0" width="4" height="100" fill="#fff" rx="2"/>
    <path d="M 12 0 L 28 0 L 28 30 L 20 40 L 12 30 Z" fill="#fff"/>
  </g>

  <!-- 瞄准镜效果 -->
  <circle cx="100" cy="100" r="70" fill="none" stroke="#fff" stroke-width="2" opacity="0.3"/>
  <circle cx="100" cy="100" r="85" fill="none" stroke="#fff" stroke-width="2" opacity="0.3"/>

  <!-- 十字准星 -->
  <line x1="100" y1="20" x2="100" y2="35" stroke="#fff" stroke-width="3" opacity="0.6"/>
  <line x1="100" y1="165" x2="100" y2="180" stroke="#fff" stroke-width="3" opacity="0.6"/>
  <line x1="20" y1="100" x2="35" y2="100" stroke="#fff" stroke-width="3" opacity="0.6"/>
  <line x1="165" y1="100" x2="180" y2="100" stroke="#fff" stroke-width="3" opacity="0.6"/>
</svg>